{"accessors":[{"name":"Mesh1 Model_1_positions","componentType":5126,"count":4,"min":[216.7969970703125,50.37879943847656,40.52690124511719],"max":[216.7969970703125,91.09960174560547,73.67179870605469],"type":"VEC3","bufferView":0,"byteOffset":0},{"name":"Mesh1 Model_1_normals","componentType":5126,"count":4,"min":[1,0,0],"max":[1,0,0],"type":"VEC3","bufferView":0,"byteOffset":48},{"name":"Mesh1 Model_1_texcoords","componentType":5126,"count":4,"min":[0,0],"max":[1,1],"type":"VEC2","bufferView":1,"byteOffset":0},{"name":"Mesh1 Model_1_0_indices","componentType":5123,"count":6,"min":[0],"max":[3],"type":"SCALAR","bufferView":2,"byteOffset":0}],"asset":{"generator":"obj2gltf","version":"2.0"},"buffers":[{"name":"BoysenOBJJJJ","byteLength":140,"uri":"data:application/octet-stream;base64,"}],"bufferViews":[{"name":"bufferView_0","buffer":0,"byteLength":96,"byteOffset":0,"byteStride":12,"target":34962},{"name":"bufferView_1","buffer":0,"byteLength":32,"byteOffset":96,"byteStride":8,"target":34962},{"name":"bufferView_2","buffer":0,"byteLength":12,"byteOffset":128,"target":34963}],"materials":[{"name":"boysenposter1","pbrMetallicRoughness":{"baseColorFactor":[0.501961,0.501961,0.501961,1],"metallicFactor":0,"roughnessFactor":1},"emissiveFactor":[0,0,0],"alphaMode":"OPAQUE","doubleSided":false}],"meshes":[{"name":"Mesh1 Model_1","primitives":[{"attributes":{"POSITION":0,"NORMAL":1,"TEXCOORD_0":2},"indices":3,"material":0,"mode":4}]}],"nodes":[{"name":"Mesh1 Model","mesh":0}],"scene":0,"scenes":[{"nodes":[0]}]}
